<?xml version="1.0" encoding="utf-8" standalone="no"?>
<!DOCTYPE svg PUBLIC "-//W3C//DTD SVG 1.1//EN"
  "http://www.w3.org/Graphics/SVG/1.1/DTD/svg11.dtd">
<svg xmlns:xlink="http://www.w3.org/1999/xlink" width="386.72pt" height="216pt" viewBox="0 0 386.72 216" xmlns="http://www.w3.org/2000/svg" version="1.1">
 <metadata>
  <rdf:RDF xmlns:dc="http://purl.org/dc/elements/1.1/" xmlns:cc="http://creativecommons.org/ns#" xmlns:rdf="http://www.w3.org/1999/02/22-rdf-syntax-ns#">
   <cc:Work>
    <dc:type rdf:resource="http://purl.org/dc/dcmitype/StillImage"/>
    <dc:date>2024-05-21T20:28:40.646882</dc:date>
    <dc:format>image/svg+xml</dc:format>
    <dc:creator>
     <cc:Agent>
      <dc:title>Matplotlib v3.8.2, https://matplotlib.org/</dc:title>
     </cc:Agent>
    </dc:creator>
   </cc:Work>
  </rdf:RDF>
 </metadata>
 <defs>
  <style type="text/css">*{stroke-linejoin: round; stroke-linecap: butt}</style>
 </defs>
 <g id="figure_1">
  <g id="patch_1">
   <path d="M 0 216 
L 386.72 216 
L 386.72 0 
L 0 0 
z
" style="fill: #ffffff"/>
  </g>
  <g id="axes_1">
   <g id="patch_2">
    <path d="M 63.47 171.16 
L 375.92 171.16 
L 375.92 10.8 
L 63.47 10.8 
z
" style="fill: #ffffff"/>
   </g>
   <g id="PathCollection_1">
    <defs>
     <path id="m0a8f4bb2c6" d="M 0 3 
C 0.795609 3 1.55874 2.683901 2.12132 2.12132 
C 2.683901 1.55874 3 0.795609 3 0 
C 3 -0.795609 2.683901 -1.55874 2.12132 -2.12132 
C 1.55874 -2.683901 0.795609 -3 0 -3 
C -0.795609 -3 -1.55874 -2.683901 -2.12132 -2.12132 
C -2.683901 -1.55874 -3 -0.795609 -3 0 
C -3 0.795609 -2.683901 1.55874 -2.12132 2.12132 
C -1.55874 2.683901 -0.795609 3 0 3 
z
" style="stroke: #1f77b4; stroke-opacity: 0.8"/>
    </defs>
    <g clip-path="url(#p684cb2a1fd)">
     <use xlink:href="#m0a8f4bb2c6" x="317.046758" y="72.501815" style="fill: #1f77b4; fill-opacity: 0.8; stroke: #1f77b4; stroke-opacity: 0.8"/>
     <use xlink:href="#m0a8f4bb2c6" x="356.86913" y="104.148651" style="fill: #1f77b4; fill-opacity: 0.8; stroke: #1f77b4; stroke-opacity: 0.8"/>
     <use xlink:href="#m0a8f4bb2c6" x="358.291566" y="27.944255" style="fill: #1f77b4; fill-opacity: 0.8; stroke: #1f77b4; stroke-opacity: 0.8"/>
     <use xlink:href="#m0a8f4bb2c6" x="319.654162" y="27.643166" style="fill: #1f77b4; fill-opacity: 0.8; stroke: #1f77b4; stroke-opacity: 0.8"/>
     <use xlink:href="#m0a8f4bb2c6" x="315.144904" y="43.458715" style="fill: #1f77b4; fill-opacity: 0.8; stroke: #1f77b4; stroke-opacity: 0.8"/>
     <use xlink:href="#m0a8f4bb2c6" x="361.717727" y="47.648061" style="fill: #1f77b4; fill-opacity: 0.8; stroke: #1f77b4; stroke-opacity: 0.8"/>
     <use xlink:href="#m0a8f4bb2c6" x="242.005135" y="90.092135" style="fill: #1f77b4; fill-opacity: 0.8; stroke: #1f77b4; stroke-opacity: 0.8"/>
     <use xlink:href="#m0a8f4bb2c6" x="279.790917" y="64.161176" style="fill: #1f77b4; fill-opacity: 0.8; stroke: #1f77b4; stroke-opacity: 0.8"/>
     <use xlink:href="#m0a8f4bb2c6" x="281.790096" y="55.304764" style="fill: #1f77b4; fill-opacity: 0.8; stroke: #1f77b4; stroke-opacity: 0.8"/>
     <use xlink:href="#m0a8f4bb2c6" x="241.306034" y="30.532379" style="fill: #1f77b4; fill-opacity: 0.8; stroke: #1f77b4; stroke-opacity: 0.8"/>
     <use xlink:href="#m0a8f4bb2c6" x="279.739877" y="73.989389" style="fill: #1f77b4; fill-opacity: 0.8; stroke: #1f77b4; stroke-opacity: 0.8"/>
     <use xlink:href="#m0a8f4bb2c6" x="281.187655" y="59.035585" style="fill: #1f77b4; fill-opacity: 0.8; stroke: #1f77b4; stroke-opacity: 0.8"/>
     <use xlink:href="#m0a8f4bb2c6" x="242.178218" y="157.488235" style="fill: #1f77b4; fill-opacity: 0.8; stroke: #1f77b4; stroke-opacity: 0.8"/>
     <use xlink:href="#m0a8f4bb2c6" x="240.62975" y="117.403889" style="fill: #1f77b4; fill-opacity: 0.8; stroke: #1f77b4; stroke-opacity: 0.8"/>
     <use xlink:href="#m0a8f4bb2c6" x="202.837798" y="36.194713" style="fill: #1f77b4; fill-opacity: 0.8; stroke: #1f77b4; stroke-opacity: 0.8"/>
     <use xlink:href="#m0a8f4bb2c6" x="162.627645" y="105.054252" style="fill: #1f77b4; fill-opacity: 0.8; stroke: #1f77b4; stroke-opacity: 0.8"/>
     <use xlink:href="#m0a8f4bb2c6" x="160.646627" y="108.414176" style="fill: #1f77b4; fill-opacity: 0.8; stroke: #1f77b4; stroke-opacity: 0.8"/>
     <use xlink:href="#m0a8f4bb2c6" x="164.183847" y="75.940859" style="fill: #1f77b4; fill-opacity: 0.8; stroke: #1f77b4; stroke-opacity: 0.8"/>
     <use xlink:href="#m0a8f4bb2c6" x="163.128265" y="163.870909" style="fill: #1f77b4; fill-opacity: 0.8; stroke: #1f77b4; stroke-opacity: 0.8"/>
     <use xlink:href="#m0a8f4bb2c6" x="124.597131" y="104.755314" style="fill: #1f77b4; fill-opacity: 0.8; stroke: #1f77b4; stroke-opacity: 0.8"/>
     <use xlink:href="#m0a8f4bb2c6" x="203.656007" y="103.836417" style="fill: #1f77b4; fill-opacity: 0.8; stroke: #1f77b4; stroke-opacity: 0.8"/>
     <use xlink:href="#m0a8f4bb2c6" x="77.953171" y="37.877235" style="fill: #1f77b4; fill-opacity: 0.8; stroke: #1f77b4; stroke-opacity: 0.8"/>
     <use xlink:href="#m0a8f4bb2c6" x="198.984706" y="74.837034" style="fill: #1f77b4; fill-opacity: 0.8; stroke: #1f77b4; stroke-opacity: 0.8"/>
     <use xlink:href="#m0a8f4bb2c6" x="200.605677" y="114.288723" style="fill: #1f77b4; fill-opacity: 0.8; stroke: #1f77b4; stroke-opacity: 0.8"/>
     <use xlink:href="#m0a8f4bb2c6" x="82.694829" y="64.455424" style="fill: #1f77b4; fill-opacity: 0.8; stroke: #1f77b4; stroke-opacity: 0.8"/>
     <use xlink:href="#m0a8f4bb2c6" x="118.945866" y="59.762614" style="fill: #1f77b4; fill-opacity: 0.8; stroke: #1f77b4; stroke-opacity: 0.8"/>
     <use xlink:href="#m0a8f4bb2c6" x="80.140028" y="45.486391" style="fill: #1f77b4; fill-opacity: 0.8; stroke: #1f77b4; stroke-opacity: 0.8"/>
     <use xlink:href="#m0a8f4bb2c6" x="120.681459" y="85.608055" style="fill: #1f77b4; fill-opacity: 0.8; stroke: #1f77b4; stroke-opacity: 0.8"/>
     <use xlink:href="#m0a8f4bb2c6" x="80.065734" y="78.347079" style="fill: #1f77b4; fill-opacity: 0.8; stroke: #1f77b4; stroke-opacity: 0.8"/>
     <use xlink:href="#m0a8f4bb2c6" x="124.155174" y="60.787457" style="fill: #1f77b4; fill-opacity: 0.8; stroke: #1f77b4; stroke-opacity: 0.8"/>
    </g>
   </g>
   <g id="PolyCollection_1">
    <path d="M 81.316934 67.122647 
L 81.316934 109.735512 
L 84.109775 109.328412 
L 86.902615 108.920957 
L 89.695455 108.513502 
L 92.488295 107.949625 
L 95.281135 107.371467 
L 98.073975 106.791133 
L 100.866815 106.210799 
L 103.659655 105.630464 
L 106.452495 105.079594 
L 109.245335 104.653341 
L 112.038175 104.111103 
L 114.831015 103.530984 
L 117.623855 102.950865 
L 120.416695 102.417151 
L 123.209535 102.194222 
L 126.002375 101.716999 
L 128.795215 101.090251 
L 131.588055 100.690934 
L 134.380895 100.333534 
L 137.173735 99.976134 
L 139.966575 99.618733 
L 142.759416 99.261333 
L 145.552256 98.903933 
L 148.345096 98.542927 
L 151.137936 97.889606 
L 153.930776 97.179171 
L 156.723616 96.653724 
L 159.516456 96.206849 
L 162.309296 95.483029 
L 165.102136 94.855222 
L 167.894976 94.535389 
L 170.687816 94.115476 
L 173.480656 93.53097 
L 176.273496 92.984275 
L 179.066336 92.642781 
L 181.859176 92.451446 
L 184.652016 92.185031 
L 187.444856 91.919616 
L 190.237696 91.740875 
L 193.030536 91.299686 
L 195.823376 90.987101 
L 198.616216 90.750749 
L 201.409056 90.484533 
L 204.201897 90.26167 
L 206.994737 89.879142 
L 209.787577 89.603 
L 212.580417 89.326857 
L 215.373257 89.139489 
L 218.166097 88.842396 
L 220.958937 88.660735 
L 223.751777 88.234588 
L 226.544617 88.069676 
L 229.337457 87.886006 
L 232.130297 87.703856 
L 234.923137 87.559555 
L 237.715977 87.313242 
L 240.508817 87.150375 
L 243.301657 87.032378 
L 246.094497 86.96141 
L 248.887337 86.876496 
L 251.680177 86.908132 
L 254.473017 86.984319 
L 257.265857 86.902194 
L 260.058697 87.109765 
L 262.851537 87.12234 
L 265.644378 86.986168 
L 268.437218 86.814394 
L 271.230058 86.866129 
L 274.022898 87.100732 
L 276.815738 87.082372 
L 279.608578 87.10628 
L 282.401418 87.170009 
L 285.194258 87.198047 
L 287.987098 87.258115 
L 290.779938 87.276911 
L 293.572778 87.490207 
L 296.365618 87.587795 
L 299.158458 87.685384 
L 301.951298 87.772515 
L 304.744138 87.725259 
L 307.536978 87.638545 
L 310.329818 87.669325 
L 313.122658 87.721321 
L 315.915498 87.787309 
L 318.708338 87.912477 
L 321.501178 88.037646 
L 324.294018 88.162814 
L 327.086859 88.287983 
L 329.879699 88.413151 
L 332.672539 88.538319 
L 335.465379 88.663488 
L 338.258219 88.788392 
L 341.051059 88.912517 
L 343.843899 89.036642 
L 346.636739 89.160767 
L 349.429579 89.284891 
L 352.222419 89.409016 
L 355.015259 89.533141 
L 357.808099 89.604858 
L 357.808099 47.46175 
L 357.808099 47.46175 
L 355.015259 47.835541 
L 352.222419 48.209332 
L 349.429579 48.583124 
L 346.636739 49.019386 
L 343.843899 49.37007 
L 341.051059 49.6946 
L 338.258219 50.075041 
L 335.465379 50.492244 
L 332.672539 50.805732 
L 329.879699 51.545516 
L 327.086859 52.231985 
L 324.294018 52.936889 
L 321.501178 53.181278 
L 318.708338 53.782185 
L 315.915498 54.266704 
L 313.122658 54.603256 
L 310.329818 54.917628 
L 307.536978 55.258086 
L 304.744138 55.644278 
L 301.951298 55.994957 
L 299.158458 56.394978 
L 296.365618 56.808975 
L 293.572778 57.171254 
L 290.779938 57.533641 
L 287.987098 57.864266 
L 285.194258 58.205658 
L 282.401418 58.573249 
L 279.608578 58.938635 
L 276.815738 59.220344 
L 274.022898 59.66202 
L 271.230058 59.908519 
L 268.437218 60.079692 
L 265.644378 60.491611 
L 262.851537 60.775062 
L 260.058697 60.953123 
L 257.265857 61.18689 
L 254.473017 61.415805 
L 251.680177 61.64747 
L 248.887337 61.914795 
L 246.094497 62.186157 
L 243.301657 62.516423 
L 240.508817 62.792027 
L 237.715977 63.068275 
L 234.923137 63.342611 
L 232.130297 63.61704 
L 229.337457 63.801821 
L 226.544617 64.068218 
L 223.751777 64.321747 
L 220.958937 64.598046 
L 218.166097 64.859947 
L 215.373257 64.91245 
L 212.580417 64.952198 
L 209.787577 64.991946 
L 206.994737 65.032488 
L 204.201897 65.275131 
L 201.409056 65.340259 
L 198.616216 65.419003 
L 195.823376 65.446813 
L 193.030536 65.496865 
L 190.237696 65.636716 
L 187.444856 65.883436 
L 184.652016 65.963755 
L 181.859176 66.066461 
L 179.066336 66.332741 
L 176.273496 66.44145 
L 173.480656 66.587399 
L 170.687816 66.660862 
L 167.894976 66.742645 
L 165.102136 66.859883 
L 162.309296 66.921457 
L 159.516456 67.097321 
L 156.723616 67.071065 
L 153.930776 67.283026 
L 151.137936 67.280564 
L 148.345096 67.319667 
L 145.552256 67.338597 
L 142.759416 67.369337 
L 139.966575 67.43979 
L 137.173735 67.510352 
L 134.380895 67.580915 
L 131.588055 67.652681 
L 128.795215 67.754706 
L 126.002375 67.794811 
L 123.209535 67.864205 
L 120.416695 67.93394 
L 117.623855 67.969218 
L 114.831015 67.963982 
L 112.038175 67.933244 
L 109.245335 67.874577 
L 106.452495 67.839416 
L 103.659655 67.59745 
L 100.866815 67.612264 
L 98.073975 67.623621 
L 95.281135 67.518026 
L 92.488295 67.460487 
L 89.695455 67.440943 
L 86.902615 67.548802 
L 84.109775 67.322855 
L 81.316934 67.122647 
z
" clip-path="url(#p684cb2a1fd)" style="fill: #1f77b4; fill-opacity: 0.15"/>
   </g>
   <g id="PathCollection_2">
    <defs>
     <path id="m9ffcbe5f3e" d="M 0 3 
C 0.795609 3 1.55874 2.683901 2.12132 2.12132 
C 2.683901 1.55874 3 0.795609 3 0 
C 3 -0.795609 2.683901 -1.55874 2.12132 -2.12132 
C 1.55874 -2.683901 0.795609 -3 0 -3 
C -0.795609 -3 -1.55874 -2.683901 -2.12132 -2.12132 
C -2.683901 -1.55874 -3 -0.795609 -3 0 
C -3 0.795609 -2.683901 1.55874 -2.12132 2.12132 
C -1.55874 2.683901 -0.795609 3 0 3 
z
" style="stroke: #ff7f0e; stroke-opacity: 0.8"/>
    </defs>
    <g clip-path="url(#p684cb2a1fd)">
     <use xlink:href="#m9ffcbe5f3e" x="314.447354" y="25.623386" style="fill: #ff7f0e; fill-opacity: 0.8; stroke: #ff7f0e; stroke-opacity: 0.8"/>
     <use xlink:href="#m9ffcbe5f3e" x="354.609946" y="39.929837" style="fill: #ff7f0e; fill-opacity: 0.8; stroke: #ff7f0e; stroke-opacity: 0.8"/>
     <use xlink:href="#m9ffcbe5f3e" x="357.857546" y="50.913127" style="fill: #ff7f0e; fill-opacity: 0.8; stroke: #ff7f0e; stroke-opacity: 0.8"/>
     <use xlink:href="#m9ffcbe5f3e" x="320.69924" y="42.66489" style="fill: #ff7f0e; fill-opacity: 0.8; stroke: #ff7f0e; stroke-opacity: 0.8"/>
     <use xlink:href="#m9ffcbe5f3e" x="356.869363" y="40.652771" style="fill: #ff7f0e; fill-opacity: 0.8; stroke: #ff7f0e; stroke-opacity: 0.8"/>
     <use xlink:href="#m9ffcbe5f3e" x="319.692713" y="20.798511" style="fill: #ff7f0e; fill-opacity: 0.8; stroke: #ff7f0e; stroke-opacity: 0.8"/>
     <use xlink:href="#m9ffcbe5f3e" x="320.826177" y="32.059617" style="fill: #ff7f0e; fill-opacity: 0.8; stroke: #ff7f0e; stroke-opacity: 0.8"/>
     <use xlink:href="#m9ffcbe5f3e" x="359.229892" y="18.089091" style="fill: #ff7f0e; fill-opacity: 0.8; stroke: #ff7f0e; stroke-opacity: 0.8"/>
     <use xlink:href="#m9ffcbe5f3e" x="281.407114" y="21.390531" style="fill: #ff7f0e; fill-opacity: 0.8; stroke: #ff7f0e; stroke-opacity: 0.8"/>
     <use xlink:href="#m9ffcbe5f3e" x="277.550344" y="43.91291" style="fill: #ff7f0e; fill-opacity: 0.8; stroke: #ff7f0e; stroke-opacity: 0.8"/>
     <use xlink:href="#m9ffcbe5f3e" x="276.80634" y="42.994819" style="fill: #ff7f0e; fill-opacity: 0.8; stroke: #ff7f0e; stroke-opacity: 0.8"/>
     <use xlink:href="#m9ffcbe5f3e" x="277.772343" y="59.580059" style="fill: #ff7f0e; fill-opacity: 0.8; stroke: #ff7f0e; stroke-opacity: 0.8"/>
     <use xlink:href="#m9ffcbe5f3e" x="199.460136" y="132.87663" style="fill: #ff7f0e; fill-opacity: 0.8; stroke: #ff7f0e; stroke-opacity: 0.8"/>
     <use xlink:href="#m9ffcbe5f3e" x="199.781669" y="47.098467" style="fill: #ff7f0e; fill-opacity: 0.8; stroke: #ff7f0e; stroke-opacity: 0.8"/>
     <use xlink:href="#m9ffcbe5f3e" x="239.537989" y="53.695061" style="fill: #ff7f0e; fill-opacity: 0.8; stroke: #ff7f0e; stroke-opacity: 0.8"/>
     <use xlink:href="#m9ffcbe5f3e" x="201.348625" y="46.500367" style="fill: #ff7f0e; fill-opacity: 0.8; stroke: #ff7f0e; stroke-opacity: 0.8"/>
     <use xlink:href="#m9ffcbe5f3e" x="242.132593" y="59.88509" style="fill: #ff7f0e; fill-opacity: 0.8; stroke: #ff7f0e; stroke-opacity: 0.8"/>
     <use xlink:href="#m9ffcbe5f3e" x="237.097802" y="47.793104" style="fill: #ff7f0e; fill-opacity: 0.8; stroke: #ff7f0e; stroke-opacity: 0.8"/>
     <use xlink:href="#m9ffcbe5f3e" x="237.491489" y="29.537943" style="fill: #ff7f0e; fill-opacity: 0.8; stroke: #ff7f0e; stroke-opacity: 0.8"/>
     <use xlink:href="#m9ffcbe5f3e" x="199.03121" y="47.964598" style="fill: #ff7f0e; fill-opacity: 0.8; stroke: #ff7f0e; stroke-opacity: 0.8"/>
     <use xlink:href="#m9ffcbe5f3e" x="164.053889" y="78.783468" style="fill: #ff7f0e; fill-opacity: 0.8; stroke: #ff7f0e; stroke-opacity: 0.8"/>
     <use xlink:href="#m9ffcbe5f3e" x="163.197324" y="64.562384" style="fill: #ff7f0e; fill-opacity: 0.8; stroke: #ff7f0e; stroke-opacity: 0.8"/>
     <use xlink:href="#m9ffcbe5f3e" x="160.456009" y="72.35179" style="fill: #ff7f0e; fill-opacity: 0.8; stroke: #ff7f0e; stroke-opacity: 0.8"/>
     <use xlink:href="#m9ffcbe5f3e" x="163.889428" y="61.97204" style="fill: #ff7f0e; fill-opacity: 0.8; stroke: #ff7f0e; stroke-opacity: 0.8"/>
     <use xlink:href="#m9ffcbe5f3e" x="84.065921" y="36.46763" style="fill: #ff7f0e; fill-opacity: 0.8; stroke: #ff7f0e; stroke-opacity: 0.8"/>
     <use xlink:href="#m9ffcbe5f3e" x="117.491912" y="73.386501" style="fill: #ff7f0e; fill-opacity: 0.8; stroke: #ff7f0e; stroke-opacity: 0.8"/>
     <use xlink:href="#m9ffcbe5f3e" x="118.613132" y="48.743129" style="fill: #ff7f0e; fill-opacity: 0.8; stroke: #ff7f0e; stroke-opacity: 0.8"/>
     <use xlink:href="#m9ffcbe5f3e" x="79.358465" y="44.05594" style="fill: #ff7f0e; fill-opacity: 0.8; stroke: #ff7f0e; stroke-opacity: 0.8"/>
     <use xlink:href="#m9ffcbe5f3e" x="123.630086" y="31.623838" style="fill: #ff7f0e; fill-opacity: 0.8; stroke: #ff7f0e; stroke-opacity: 0.8"/>
     <use xlink:href="#m9ffcbe5f3e" x="77.672273" y="43.739723" style="fill: #ff7f0e; fill-opacity: 0.8; stroke: #ff7f0e; stroke-opacity: 0.8"/>
     <use xlink:href="#m9ffcbe5f3e" x="120.781108" y="57.019095" style="fill: #ff7f0e; fill-opacity: 0.8; stroke: #ff7f0e; stroke-opacity: 0.8"/>
     <use xlink:href="#m9ffcbe5f3e" x="83.135468" y="31.991682" style="fill: #ff7f0e; fill-opacity: 0.8; stroke: #ff7f0e; stroke-opacity: 0.8"/>
    </g>
   </g>
   <g id="PolyCollection_2">
    <path d="M 81.316934 47.761463 
L 81.316934 75.352691 
L 84.109775 74.845597 
L 86.902615 74.336484 
L 89.695455 73.825366 
L 92.488295 73.314247 
L 95.281135 72.803129 
L 98.073975 72.311486 
L 100.866815 71.892831 
L 103.659655 71.474177 
L 106.452495 71.055522 
L 109.245335 70.636867 
L 112.038175 70.218212 
L 114.831015 69.729293 
L 117.623855 69.353224 
L 120.416695 68.969548 
L 123.209535 68.554941 
L 126.002375 68.140335 
L 128.795215 67.725728 
L 131.588055 67.309272 
L 134.380895 66.90615 
L 137.173735 66.521892 
L 139.966575 66.116797 
L 142.759416 65.640017 
L 145.552256 65.224447 
L 148.345096 64.806386 
L 151.137936 64.388197 
L 153.930776 63.971667 
L 156.723616 63.556913 
L 159.516456 63.142158 
L 162.309296 62.727403 
L 165.102136 62.381829 
L 167.894976 62.141845 
L 170.687816 61.892136 
L 173.480656 61.543113 
L 176.273496 61.175881 
L 179.066336 60.846284 
L 181.859176 60.476815 
L 184.652016 60.111649 
L 187.444856 59.744554 
L 190.237696 59.451452 
L 193.030536 59.105895 
L 195.823376 58.754958 
L 198.616216 58.479246 
L 201.409056 58.145028 
L 204.201897 57.827521 
L 206.994737 57.555019 
L 209.787577 57.334861 
L 212.580417 56.965499 
L 215.373257 56.703739 
L 218.166097 56.417219 
L 220.958937 56.137656 
L 223.751777 55.694632 
L 226.544617 55.432365 
L 229.337457 55.071528 
L 232.130297 54.904595 
L 234.923137 54.689511 
L 237.715977 54.476506 
L 240.508817 54.251517 
L 243.301657 53.998249 
L 246.094497 53.567177 
L 248.887337 53.304542 
L 251.680177 53.260365 
L 254.473017 53.111547 
L 257.265857 52.993468 
L 260.058697 52.860945 
L 262.851537 52.617648 
L 265.644378 52.529927 
L 268.437218 52.4029 
L 271.230058 52.143873 
L 274.022898 51.785851 
L 276.815738 51.558592 
L 279.608578 51.452694 
L 282.401418 51.311328 
L 285.194258 51.187214 
L 287.987098 51.099626 
L 290.779938 51.024067 
L 293.572778 50.815894 
L 296.365618 50.693347 
L 299.158458 50.623623 
L 301.951298 50.61221 
L 304.744138 50.519283 
L 307.536978 50.346691 
L 310.329818 50.294655 
L 313.122658 50.290322 
L 315.915498 50.177727 
L 318.708338 50.098404 
L 321.501178 49.991647 
L 324.294018 49.922216 
L 327.086859 49.883304 
L 329.879699 49.857898 
L 332.672539 49.760251 
L 335.465379 49.737073 
L 338.258219 49.604849 
L 341.051059 49.637596 
L 343.843899 49.563355 
L 346.636739 49.376436 
L 349.429579 49.282204 
L 352.222419 49.139365 
L 355.015259 49.138691 
L 357.808099 49.068189 
L 357.808099 29.651932 
L 357.808099 29.651932 
L 355.015259 29.916802 
L 352.222419 30.260565 
L 349.429579 30.704477 
L 346.636739 31.222206 
L 343.843899 31.596812 
L 341.051059 31.976022 
L 338.258219 32.244294 
L 335.465379 32.571967 
L 332.672539 32.85343 
L 329.879699 33.270719 
L 327.086859 33.754426 
L 324.294018 34.045531 
L 321.501178 34.361039 
L 318.708338 34.603979 
L 315.915498 34.830369 
L 313.122658 35.125662 
L 310.329818 35.350324 
L 307.536978 35.557279 
L 304.744138 35.810966 
L 301.951298 36.191985 
L 299.158458 36.495847 
L 296.365618 36.735337 
L 293.572778 36.985109 
L 290.779938 37.286706 
L 287.987098 37.519639 
L 285.194258 37.800122 
L 282.401418 37.980976 
L 279.608578 38.211816 
L 276.815738 38.395901 
L 274.022898 38.592053 
L 271.230058 38.767545 
L 268.437218 39.008896 
L 265.644378 39.325634 
L 262.851537 39.569423 
L 260.058697 39.74803 
L 257.265857 39.97627 
L 254.473017 40.134133 
L 251.680177 40.36422 
L 248.887337 40.651424 
L 246.094497 40.792219 
L 243.301657 40.960134 
L 240.508817 41.267317 
L 237.715977 41.497205 
L 234.923137 41.663056 
L 232.130297 41.812078 
L 229.337457 41.95242 
L 226.544617 42.080771 
L 223.751777 42.188954 
L 220.958937 42.36431 
L 218.166097 42.503668 
L 215.373257 42.641219 
L 212.580417 42.777488 
L 209.787577 42.870143 
L 206.994737 43.015131 
L 204.201897 43.187121 
L 201.409056 43.328908 
L 198.616216 43.454035 
L 195.823376 43.593939 
L 193.030536 43.719987 
L 190.237696 43.824862 
L 187.444856 43.977034 
L 184.652016 44.06647 
L 181.859176 44.138607 
L 179.066336 44.243007 
L 176.273496 44.347016 
L 173.480656 44.47809 
L 170.687816 44.628923 
L 167.894976 44.722856 
L 165.102136 44.853532 
L 162.309296 44.992828 
L 159.516456 45.097723 
L 156.723616 45.182817 
L 153.930776 45.320784 
L 151.137936 45.450365 
L 148.345096 45.532246 
L 145.552256 45.631399 
L 142.759416 45.774159 
L 139.966575 45.864627 
L 137.173735 45.957242 
L 134.380895 46.069053 
L 131.588055 46.182065 
L 128.795215 46.281936 
L 126.002375 46.383361 
L 123.209535 46.525991 
L 120.416695 46.591906 
L 117.623855 46.641343 
L 114.831015 46.740907 
L 112.038175 46.857841 
L 109.245335 46.918552 
L 106.452495 46.984396 
L 103.659655 47.091058 
L 100.866815 47.166575 
L 98.073975 47.240613 
L 95.281135 47.326867 
L 92.488295 47.413121 
L 89.695455 47.501135 
L 86.902615 47.588249 
L 84.109775 47.673921 
L 81.316934 47.761463 
z
" clip-path="url(#p684cb2a1fd)" style="fill: #ff7f0e; fill-opacity: 0.15"/>
   </g>
   <g id="matplotlib.axis_1">
    <g id="xtick_1">
     <g id="line2d_1">
      <defs>
       <path id="mf2d7d5975a" d="M 0 0 
L 0 3.5 
" style="stroke: #000000; stroke-width: 0.8"/>
      </defs>
      <g>
       <use xlink:href="#mf2d7d5975a" x="81.316934" y="171.16" style="stroke: #000000; stroke-width: 0.8"/>
      </g>
     </g>
     <g id="text_1">
      <!-- 1 -->
      <g transform="translate(78.135684 185.758437) scale(0.1 -0.1)">
       <defs>
        <path id="DejaVuSans-31" d="M 794 531 
L 1825 531 
L 1825 4091 
L 703 3866 
L 703 4441 
L 1819 4666 
L 2450 4666 
L 2450 531 
L 3481 531 
L 3481 0 
L 794 0 
L 794 531 
z
" transform="scale(0.015625)"/>
       </defs>
       <use xlink:href="#DejaVuSans-31"/>
      </g>
     </g>
    </g>
    <g id="xtick_2">
     <g id="line2d_2">
      <g>
       <use xlink:href="#mf2d7d5975a" x="120.815672" y="171.16" style="stroke: #000000; stroke-width: 0.8"/>
      </g>
     </g>
     <g id="text_2">
      <!-- 2 -->
      <g transform="translate(117.634422 185.758437) scale(0.1 -0.1)">
       <defs>
        <path id="DejaVuSans-32" d="M 1228 531 
L 3431 531 
L 3431 0 
L 469 0 
L 469 531 
Q 828 903 1448 1529 
Q 2069 2156 2228 2338 
Q 2531 2678 2651 2914 
Q 2772 3150 2772 3378 
Q 2772 3750 2511 3984 
Q 2250 4219 1831 4219 
Q 1534 4219 1204 4116 
Q 875 4013 500 3803 
L 500 4441 
Q 881 4594 1212 4672 
Q 1544 4750 1819 4750 
Q 2544 4750 2975 4387 
Q 3406 4025 3406 3419 
Q 3406 3131 3298 2873 
Q 3191 2616 2906 2266 
Q 2828 2175 2409 1742 
Q 1991 1309 1228 531 
z
" transform="scale(0.015625)"/>
       </defs>
       <use xlink:href="#DejaVuSans-32"/>
      </g>
     </g>
    </g>
    <g id="xtick_3">
     <g id="line2d_3">
      <g>
       <use xlink:href="#mf2d7d5975a" x="160.31441" y="171.16" style="stroke: #000000; stroke-width: 0.8"/>
      </g>
     </g>
     <g id="text_3">
      <!-- 3 -->
      <g transform="translate(157.13316 185.758437) scale(0.1 -0.1)">
       <defs>
        <path id="DejaVuSans-33" d="M 2597 2516 
Q 3050 2419 3304 2112 
Q 3559 1806 3559 1356 
Q 3559 666 3084 287 
Q 2609 -91 1734 -91 
Q 1441 -91 1130 -33 
Q 819 25 488 141 
L 488 750 
Q 750 597 1062 519 
Q 1375 441 1716 441 
Q 2309 441 2620 675 
Q 2931 909 2931 1356 
Q 2931 1769 2642 2001 
Q 2353 2234 1838 2234 
L 1294 2234 
L 1294 2753 
L 1863 2753 
Q 2328 2753 2575 2939 
Q 2822 3125 2822 3475 
Q 2822 3834 2567 4026 
Q 2313 4219 1838 4219 
Q 1578 4219 1281 4162 
Q 984 4106 628 3988 
L 628 4550 
Q 988 4650 1302 4700 
Q 1616 4750 1894 4750 
Q 2613 4750 3031 4423 
Q 3450 4097 3450 3541 
Q 3450 3153 3228 2886 
Q 3006 2619 2597 2516 
z
" transform="scale(0.015625)"/>
       </defs>
       <use xlink:href="#DejaVuSans-33"/>
      </g>
     </g>
    </g>
    <g id="xtick_4">
     <g id="line2d_4">
      <g>
       <use xlink:href="#mf2d7d5975a" x="199.813148" y="171.16" style="stroke: #000000; stroke-width: 0.8"/>
      </g>
     </g>
     <g id="text_4">
      <!-- 4 -->
      <g transform="translate(196.631898 185.758437) scale(0.1 -0.1)">
       <defs>
        <path id="DejaVuSans-34" d="M 2419 4116 
L 825 1625 
L 2419 1625 
L 2419 4116 
z
M 2253 4666 
L 3047 4666 
L 3047 1625 
L 3713 1625 
L 3713 1100 
L 3047 1100 
L 3047 0 
L 2419 0 
L 2419 1100 
L 313 1100 
L 313 1709 
L 2253 4666 
z
" transform="scale(0.015625)"/>
       </defs>
       <use xlink:href="#DejaVuSans-34"/>
      </g>
     </g>
    </g>
    <g id="xtick_5">
     <g id="line2d_5">
      <g>
       <use xlink:href="#mf2d7d5975a" x="239.311886" y="171.16" style="stroke: #000000; stroke-width: 0.8"/>
      </g>
     </g>
     <g id="text_5">
      <!-- 5 -->
      <g transform="translate(236.130636 185.758437) scale(0.1 -0.1)">
       <defs>
        <path id="DejaVuSans-35" d="M 691 4666 
L 3169 4666 
L 3169 4134 
L 1269 4134 
L 1269 2991 
Q 1406 3038 1543 3061 
Q 1681 3084 1819 3084 
Q 2600 3084 3056 2656 
Q 3513 2228 3513 1497 
Q 3513 744 3044 326 
Q 2575 -91 1722 -91 
Q 1428 -91 1123 -41 
Q 819 9 494 109 
L 494 744 
Q 775 591 1075 516 
Q 1375 441 1709 441 
Q 2250 441 2565 725 
Q 2881 1009 2881 1497 
Q 2881 1984 2565 2268 
Q 2250 2553 1709 2553 
Q 1456 2553 1204 2497 
Q 953 2441 691 2322 
L 691 4666 
z
" transform="scale(0.015625)"/>
       </defs>
       <use xlink:href="#DejaVuSans-35"/>
      </g>
     </g>
    </g>
    <g id="xtick_6">
     <g id="line2d_6">
      <g>
       <use xlink:href="#mf2d7d5975a" x="278.810623" y="171.16" style="stroke: #000000; stroke-width: 0.8"/>
      </g>
     </g>
     <g id="text_6">
      <!-- 6 -->
      <g transform="translate(275.629373 185.758437) scale(0.1 -0.1)">
       <defs>
        <path id="DejaVuSans-36" d="M 2113 2584 
Q 1688 2584 1439 2293 
Q 1191 2003 1191 1497 
Q 1191 994 1439 701 
Q 1688 409 2113 409 
Q 2538 409 2786 701 
Q 3034 994 3034 1497 
Q 3034 2003 2786 2293 
Q 2538 2584 2113 2584 
z
M 3366 4563 
L 3366 3988 
Q 3128 4100 2886 4159 
Q 2644 4219 2406 4219 
Q 1781 4219 1451 3797 
Q 1122 3375 1075 2522 
Q 1259 2794 1537 2939 
Q 1816 3084 2150 3084 
Q 2853 3084 3261 2657 
Q 3669 2231 3669 1497 
Q 3669 778 3244 343 
Q 2819 -91 2113 -91 
Q 1303 -91 875 529 
Q 447 1150 447 2328 
Q 447 3434 972 4092 
Q 1497 4750 2381 4750 
Q 2619 4750 2861 4703 
Q 3103 4656 3366 4563 
z
" transform="scale(0.015625)"/>
       </defs>
       <use xlink:href="#DejaVuSans-36"/>
      </g>
     </g>
    </g>
    <g id="xtick_7">
     <g id="line2d_7">
      <g>
       <use xlink:href="#mf2d7d5975a" x="318.309361" y="171.16" style="stroke: #000000; stroke-width: 0.8"/>
      </g>
     </g>
     <g id="text_7">
      <!-- 7 -->
      <g transform="translate(315.128111 185.758437) scale(0.1 -0.1)">
       <defs>
        <path id="DejaVuSans-37" d="M 525 4666 
L 3525 4666 
L 3525 4397 
L 1831 0 
L 1172 0 
L 2766 4134 
L 525 4134 
L 525 4666 
z
" transform="scale(0.015625)"/>
       </defs>
       <use xlink:href="#DejaVuSans-37"/>
      </g>
     </g>
    </g>
    <g id="xtick_8">
     <g id="line2d_8">
      <g>
       <use xlink:href="#mf2d7d5975a" x="357.808099" y="171.16" style="stroke: #000000; stroke-width: 0.8"/>
      </g>
     </g>
     <g id="text_8">
      <!-- 8 -->
      <g transform="translate(354.626849 185.758437) scale(0.1 -0.1)">
       <defs>
        <path id="DejaVuSans-38" d="M 2034 2216 
Q 1584 2216 1326 1975 
Q 1069 1734 1069 1313 
Q 1069 891 1326 650 
Q 1584 409 2034 409 
Q 2484 409 2743 651 
Q 3003 894 3003 1313 
Q 3003 1734 2745 1975 
Q 2488 2216 2034 2216 
z
M 1403 2484 
Q 997 2584 770 2862 
Q 544 3141 544 3541 
Q 544 4100 942 4425 
Q 1341 4750 2034 4750 
Q 2731 4750 3128 4425 
Q 3525 4100 3525 3541 
Q 3525 3141 3298 2862 
Q 3072 2584 2669 2484 
Q 3125 2378 3379 2068 
Q 3634 1759 3634 1313 
Q 3634 634 3220 271 
Q 2806 -91 2034 -91 
Q 1263 -91 848 271 
Q 434 634 434 1313 
Q 434 1759 690 2068 
Q 947 2378 1403 2484 
z
M 1172 3481 
Q 1172 3119 1398 2916 
Q 1625 2713 2034 2713 
Q 2441 2713 2670 2916 
Q 2900 3119 2900 3481 
Q 2900 3844 2670 4047 
Q 2441 4250 2034 4250 
Q 1625 4250 1398 4047 
Q 1172 3844 1172 3481 
z
" transform="scale(0.015625)"/>
       </defs>
       <use xlink:href="#DejaVuSans-38"/>
      </g>
     </g>
    </g>
    <g id="text_9">
     <!-- Number of subsamples $K$ -->
     <g transform="translate(156.995 199.438125) scale(0.1 -0.1)">
      <defs>
       <path id="DejaVuSans-4e" d="M 628 4666 
L 1478 4666 
L 3547 763 
L 3547 4666 
L 4159 4666 
L 4159 0 
L 3309 0 
L 1241 3903 
L 1241 0 
L 628 0 
L 628 4666 
z
" transform="scale(0.015625)"/>
       <path id="DejaVuSans-75" d="M 544 1381 
L 544 3500 
L 1119 3500 
L 1119 1403 
Q 1119 906 1312 657 
Q 1506 409 1894 409 
Q 2359 409 2629 706 
Q 2900 1003 2900 1516 
L 2900 3500 
L 3475 3500 
L 3475 0 
L 2900 0 
L 2900 538 
Q 2691 219 2414 64 
Q 2138 -91 1772 -91 
Q 1169 -91 856 284 
Q 544 659 544 1381 
z
M 1991 3584 
L 1991 3584 
z
" transform="scale(0.015625)"/>
       <path id="DejaVuSans-6d" d="M 3328 2828 
Q 3544 3216 3844 3400 
Q 4144 3584 4550 3584 
Q 5097 3584 5394 3201 
Q 5691 2819 5691 2113 
L 5691 0 
L 5113 0 
L 5113 2094 
Q 5113 2597 4934 2840 
Q 4756 3084 4391 3084 
Q 3944 3084 3684 2787 
Q 3425 2491 3425 1978 
L 3425 0 
L 2847 0 
L 2847 2094 
Q 2847 2600 2669 2842 
Q 2491 3084 2119 3084 
Q 1678 3084 1418 2786 
Q 1159 2488 1159 1978 
L 1159 0 
L 581 0 
L 581 3500 
L 1159 3500 
L 1159 2956 
Q 1356 3278 1631 3431 
Q 1906 3584 2284 3584 
Q 2666 3584 2933 3390 
Q 3200 3197 3328 2828 
z
" transform="scale(0.015625)"/>
       <path id="DejaVuSans-62" d="M 3116 1747 
Q 3116 2381 2855 2742 
Q 2594 3103 2138 3103 
Q 1681 3103 1420 2742 
Q 1159 2381 1159 1747 
Q 1159 1113 1420 752 
Q 1681 391 2138 391 
Q 2594 391 2855 752 
Q 3116 1113 3116 1747 
z
M 1159 2969 
Q 1341 3281 1617 3432 
Q 1894 3584 2278 3584 
Q 2916 3584 3314 3078 
Q 3713 2572 3713 1747 
Q 3713 922 3314 415 
Q 2916 -91 2278 -91 
Q 1894 -91 1617 61 
Q 1341 213 1159 525 
L 1159 0 
L 581 0 
L 581 4863 
L 1159 4863 
L 1159 2969 
z
" transform="scale(0.015625)"/>
       <path id="DejaVuSans-65" d="M 3597 1894 
L 3597 1613 
L 953 1613 
Q 991 1019 1311 708 
Q 1631 397 2203 397 
Q 2534 397 2845 478 
Q 3156 559 3463 722 
L 3463 178 
Q 3153 47 2828 -22 
Q 2503 -91 2169 -91 
Q 1331 -91 842 396 
Q 353 884 353 1716 
Q 353 2575 817 3079 
Q 1281 3584 2069 3584 
Q 2775 3584 3186 3129 
Q 3597 2675 3597 1894 
z
M 3022 2063 
Q 3016 2534 2758 2815 
Q 2500 3097 2075 3097 
Q 1594 3097 1305 2825 
Q 1016 2553 972 2059 
L 3022 2063 
z
" transform="scale(0.015625)"/>
       <path id="DejaVuSans-72" d="M 2631 2963 
Q 2534 3019 2420 3045 
Q 2306 3072 2169 3072 
Q 1681 3072 1420 2755 
Q 1159 2438 1159 1844 
L 1159 0 
L 581 0 
L 581 3500 
L 1159 3500 
L 1159 2956 
Q 1341 3275 1631 3429 
Q 1922 3584 2338 3584 
Q 2397 3584 2469 3576 
Q 2541 3569 2628 3553 
L 2631 2963 
z
" transform="scale(0.015625)"/>
       <path id="DejaVuSans-20" transform="scale(0.015625)"/>
       <path id="DejaVuSans-6f" d="M 1959 3097 
Q 1497 3097 1228 2736 
Q 959 2375 959 1747 
Q 959 1119 1226 758 
Q 1494 397 1959 397 
Q 2419 397 2687 759 
Q 2956 1122 2956 1747 
Q 2956 2369 2687 2733 
Q 2419 3097 1959 3097 
z
M 1959 3584 
Q 2709 3584 3137 3096 
Q 3566 2609 3566 1747 
Q 3566 888 3137 398 
Q 2709 -91 1959 -91 
Q 1206 -91 779 398 
Q 353 888 353 1747 
Q 353 2609 779 3096 
Q 1206 3584 1959 3584 
z
" transform="scale(0.015625)"/>
       <path id="DejaVuSans-66" d="M 2375 4863 
L 2375 4384 
L 1825 4384 
Q 1516 4384 1395 4259 
Q 1275 4134 1275 3809 
L 1275 3500 
L 2222 3500 
L 2222 3053 
L 1275 3053 
L 1275 0 
L 697 0 
L 697 3053 
L 147 3053 
L 147 3500 
L 697 3500 
L 697 3744 
Q 697 4328 969 4595 
Q 1241 4863 1831 4863 
L 2375 4863 
z
" transform="scale(0.015625)"/>
       <path id="DejaVuSans-73" d="M 2834 3397 
L 2834 2853 
Q 2591 2978 2328 3040 
Q 2066 3103 1784 3103 
Q 1356 3103 1142 2972 
Q 928 2841 928 2578 
Q 928 2378 1081 2264 
Q 1234 2150 1697 2047 
L 1894 2003 
Q 2506 1872 2764 1633 
Q 3022 1394 3022 966 
Q 3022 478 2636 193 
Q 2250 -91 1575 -91 
Q 1294 -91 989 -36 
Q 684 19 347 128 
L 347 722 
Q 666 556 975 473 
Q 1284 391 1588 391 
Q 1994 391 2212 530 
Q 2431 669 2431 922 
Q 2431 1156 2273 1281 
Q 2116 1406 1581 1522 
L 1381 1569 
Q 847 1681 609 1914 
Q 372 2147 372 2553 
Q 372 3047 722 3315 
Q 1072 3584 1716 3584 
Q 2034 3584 2315 3537 
Q 2597 3491 2834 3397 
z
" transform="scale(0.015625)"/>
       <path id="DejaVuSans-61" d="M 2194 1759 
Q 1497 1759 1228 1600 
Q 959 1441 959 1056 
Q 959 750 1161 570 
Q 1363 391 1709 391 
Q 2188 391 2477 730 
Q 2766 1069 2766 1631 
L 2766 1759 
L 2194 1759 
z
M 3341 1997 
L 3341 0 
L 2766 0 
L 2766 531 
Q 2569 213 2275 61 
Q 1981 -91 1556 -91 
Q 1019 -91 701 211 
Q 384 513 384 1019 
Q 384 1609 779 1909 
Q 1175 2209 1959 2209 
L 2766 2209 
L 2766 2266 
Q 2766 2663 2505 2880 
Q 2244 3097 1772 3097 
Q 1472 3097 1187 3025 
Q 903 2953 641 2809 
L 641 3341 
Q 956 3463 1253 3523 
Q 1550 3584 1831 3584 
Q 2591 3584 2966 3190 
Q 3341 2797 3341 1997 
z
" transform="scale(0.015625)"/>
       <path id="DejaVuSans-70" d="M 1159 525 
L 1159 -1331 
L 581 -1331 
L 581 3500 
L 1159 3500 
L 1159 2969 
Q 1341 3281 1617 3432 
Q 1894 3584 2278 3584 
Q 2916 3584 3314 3078 
Q 3713 2572 3713 1747 
Q 3713 922 3314 415 
Q 2916 -91 2278 -91 
Q 1894 -91 1617 61 
Q 1341 213 1159 525 
z
M 3116 1747 
Q 3116 2381 2855 2742 
Q 2594 3103 2138 3103 
Q 1681 3103 1420 2742 
Q 1159 2381 1159 1747 
Q 1159 1113 1420 752 
Q 1681 391 2138 391 
Q 2594 391 2855 752 
Q 3116 1113 3116 1747 
z
" transform="scale(0.015625)"/>
       <path id="DejaVuSans-6c" d="M 603 4863 
L 1178 4863 
L 1178 0 
L 603 0 
L 603 4863 
z
" transform="scale(0.015625)"/>
       <path id="DejaVuSans-Oblique-4b" d="M 1081 4666 
L 1716 4666 
L 1331 2700 
L 3781 4666 
L 4622 4666 
L 1850 2438 
L 3878 0 
L 3109 0 
L 1247 2272 
L 806 0 
L 172 0 
L 1081 4666 
z
" transform="scale(0.015625)"/>
      </defs>
      <use xlink:href="#DejaVuSans-4e" transform="translate(0 0.015625)"/>
      <use xlink:href="#DejaVuSans-75" transform="translate(74.804688 0.015625)"/>
      <use xlink:href="#DejaVuSans-6d" transform="translate(138.183594 0.015625)"/>
      <use xlink:href="#DejaVuSans-62" transform="translate(235.595703 0.015625)"/>
      <use xlink:href="#DejaVuSans-65" transform="translate(299.072266 0.015625)"/>
      <use xlink:href="#DejaVuSans-72" transform="translate(360.595703 0.015625)"/>
      <use xlink:href="#DejaVuSans-20" transform="translate(401.708984 0.015625)"/>
      <use xlink:href="#DejaVuSans-6f" transform="translate(433.496094 0.015625)"/>
      <use xlink:href="#DejaVuSans-66" transform="translate(494.677734 0.015625)"/>
      <use xlink:href="#DejaVuSans-20" transform="translate(529.882812 0.015625)"/>
      <use xlink:href="#DejaVuSans-73" transform="translate(561.669922 0.015625)"/>
      <use xlink:href="#DejaVuSans-75" transform="translate(613.769531 0.015625)"/>
      <use xlink:href="#DejaVuSans-62" transform="translate(677.148438 0.015625)"/>
      <use xlink:href="#DejaVuSans-73" transform="translate(740.625 0.015625)"/>
      <use xlink:href="#DejaVuSans-61" transform="translate(792.724609 0.015625)"/>
      <use xlink:href="#DejaVuSans-6d" transform="translate(854.003906 0.015625)"/>
      <use xlink:href="#DejaVuSans-70" transform="translate(951.416016 0.015625)"/>
      <use xlink:href="#DejaVuSans-6c" transform="translate(1014.892578 0.015625)"/>
      <use xlink:href="#DejaVuSans-65" transform="translate(1042.675781 0.015625)"/>
      <use xlink:href="#DejaVuSans-73" transform="translate(1104.199219 0.015625)"/>
      <use xlink:href="#DejaVuSans-20" transform="translate(1156.298828 0.015625)"/>
      <use xlink:href="#DejaVuSans-Oblique-4b" transform="translate(1188.085938 0.015625)"/>
     </g>
    </g>
   </g>
   <g id="matplotlib.axis_2">
    <g id="ytick_1">
     <g id="line2d_9">
      <defs>
       <path id="mdcb9fbfc9b" d="M 0 0 
L -3.5 0 
" style="stroke: #000000; stroke-width: 0.8"/>
      </defs>
      <g>
       <use xlink:href="#mdcb9fbfc9b" x="63.47" y="165.576497" style="stroke: #000000; stroke-width: 0.8"/>
      </g>
     </g>
     <g id="text_10">
      <!-- 45600 -->
      <g transform="translate(24.6575 169.375716) scale(0.1 -0.1)">
       <defs>
        <path id="DejaVuSans-30" d="M 2034 4250 
Q 1547 4250 1301 3770 
Q 1056 3291 1056 2328 
Q 1056 1369 1301 889 
Q 1547 409 2034 409 
Q 2525 409 2770 889 
Q 3016 1369 3016 2328 
Q 3016 3291 2770 3770 
Q 2525 4250 2034 4250 
z
M 2034 4750 
Q 2819 4750 3233 4129 
Q 3647 3509 3647 2328 
Q 3647 1150 3233 529 
Q 2819 -91 2034 -91 
Q 1250 -91 836 529 
Q 422 1150 422 2328 
Q 422 3509 836 4129 
Q 1250 4750 2034 4750 
z
" transform="scale(0.015625)"/>
       </defs>
       <use xlink:href="#DejaVuSans-34"/>
       <use xlink:href="#DejaVuSans-35" x="63.623047"/>
       <use xlink:href="#DejaVuSans-36" x="127.246094"/>
       <use xlink:href="#DejaVuSans-30" x="190.869141"/>
       <use xlink:href="#DejaVuSans-30" x="254.492188"/>
      </g>
     </g>
    </g>
    <g id="ytick_2">
     <g id="line2d_10">
      <g>
       <use xlink:href="#mdcb9fbfc9b" x="63.47" y="130.048038" style="stroke: #000000; stroke-width: 0.8"/>
      </g>
     </g>
     <g id="text_11">
      <!-- 45800 -->
      <g transform="translate(24.6575 133.847256) scale(0.1 -0.1)">
       <use xlink:href="#DejaVuSans-34"/>
       <use xlink:href="#DejaVuSans-35" x="63.623047"/>
       <use xlink:href="#DejaVuSans-38" x="127.246094"/>
       <use xlink:href="#DejaVuSans-30" x="190.869141"/>
       <use xlink:href="#DejaVuSans-30" x="254.492188"/>
      </g>
     </g>
    </g>
    <g id="ytick_3">
     <g id="line2d_11">
      <g>
       <use xlink:href="#mdcb9fbfc9b" x="63.47" y="94.519578" style="stroke: #000000; stroke-width: 0.8"/>
      </g>
     </g>
     <g id="text_12">
      <!-- 46000 -->
      <g transform="translate(24.6575 98.318797) scale(0.1 -0.1)">
       <use xlink:href="#DejaVuSans-34"/>
       <use xlink:href="#DejaVuSans-36" x="63.623047"/>
       <use xlink:href="#DejaVuSans-30" x="127.246094"/>
       <use xlink:href="#DejaVuSans-30" x="190.869141"/>
       <use xlink:href="#DejaVuSans-30" x="254.492188"/>
      </g>
     </g>
    </g>
    <g id="ytick_4">
     <g id="line2d_12">
      <g>
       <use xlink:href="#mdcb9fbfc9b" x="63.47" y="58.991119" style="stroke: #000000; stroke-width: 0.8"/>
      </g>
     </g>
     <g id="text_13">
      <!-- 46200 -->
      <g transform="translate(24.6575 62.790338) scale(0.1 -0.1)">
       <use xlink:href="#DejaVuSans-34"/>
       <use xlink:href="#DejaVuSans-36" x="63.623047"/>
       <use xlink:href="#DejaVuSans-32" x="127.246094"/>
       <use xlink:href="#DejaVuSans-30" x="190.869141"/>
       <use xlink:href="#DejaVuSans-30" x="254.492188"/>
      </g>
     </g>
    </g>
    <g id="ytick_5">
     <g id="line2d_13">
      <g>
       <use xlink:href="#mdcb9fbfc9b" x="63.47" y="23.462659" style="stroke: #000000; stroke-width: 0.8"/>
      </g>
     </g>
     <g id="text_14">
      <!-- 46400 -->
      <g transform="translate(24.6575 27.261878) scale(0.1 -0.1)">
       <use xlink:href="#DejaVuSans-34"/>
       <use xlink:href="#DejaVuSans-36" x="63.623047"/>
       <use xlink:href="#DejaVuSans-34" x="127.246094"/>
       <use xlink:href="#DejaVuSans-30" x="190.869141"/>
       <use xlink:href="#DejaVuSans-30" x="254.492188"/>
      </g>
     </g>
    </g>
    <g id="text_15">
     <!-- Test set ELBO (nats/dim) -->
     <g transform="translate(18.577813 152.275313) rotate(-90) scale(0.1 -0.1)">
      <defs>
       <path id="DejaVuSans-54" d="M -19 4666 
L 3928 4666 
L 3928 4134 
L 2272 4134 
L 2272 0 
L 1638 0 
L 1638 4134 
L -19 4134 
L -19 4666 
z
" transform="scale(0.015625)"/>
       <path id="DejaVuSans-74" d="M 1172 4494 
L 1172 3500 
L 2356 3500 
L 2356 3053 
L 1172 3053 
L 1172 1153 
Q 1172 725 1289 603 
Q 1406 481 1766 481 
L 2356 481 
L 2356 0 
L 1766 0 
Q 1100 0 847 248 
Q 594 497 594 1153 
L 594 3053 
L 172 3053 
L 172 3500 
L 594 3500 
L 594 4494 
L 1172 4494 
z
" transform="scale(0.015625)"/>
       <path id="DejaVuSans-45" d="M 628 4666 
L 3578 4666 
L 3578 4134 
L 1259 4134 
L 1259 2753 
L 3481 2753 
L 3481 2222 
L 1259 2222 
L 1259 531 
L 3634 531 
L 3634 0 
L 628 0 
L 628 4666 
z
" transform="scale(0.015625)"/>
       <path id="DejaVuSans-4c" d="M 628 4666 
L 1259 4666 
L 1259 531 
L 3531 531 
L 3531 0 
L 628 0 
L 628 4666 
z
" transform="scale(0.015625)"/>
       <path id="DejaVuSans-42" d="M 1259 2228 
L 1259 519 
L 2272 519 
Q 2781 519 3026 730 
Q 3272 941 3272 1375 
Q 3272 1813 3026 2020 
Q 2781 2228 2272 2228 
L 1259 2228 
z
M 1259 4147 
L 1259 2741 
L 2194 2741 
Q 2656 2741 2882 2914 
Q 3109 3088 3109 3444 
Q 3109 3797 2882 3972 
Q 2656 4147 2194 4147 
L 1259 4147 
z
M 628 4666 
L 2241 4666 
Q 2963 4666 3353 4366 
Q 3744 4066 3744 3513 
Q 3744 3084 3544 2831 
Q 3344 2578 2956 2516 
Q 3422 2416 3680 2098 
Q 3938 1781 3938 1306 
Q 3938 681 3513 340 
Q 3088 0 2303 0 
L 628 0 
L 628 4666 
z
" transform="scale(0.015625)"/>
       <path id="DejaVuSans-4f" d="M 2522 4238 
Q 1834 4238 1429 3725 
Q 1025 3213 1025 2328 
Q 1025 1447 1429 934 
Q 1834 422 2522 422 
Q 3209 422 3611 934 
Q 4013 1447 4013 2328 
Q 4013 3213 3611 3725 
Q 3209 4238 2522 4238 
z
M 2522 4750 
Q 3503 4750 4090 4092 
Q 4678 3434 4678 2328 
Q 4678 1225 4090 567 
Q 3503 -91 2522 -91 
Q 1538 -91 948 565 
Q 359 1222 359 2328 
Q 359 3434 948 4092 
Q 1538 4750 2522 4750 
z
" transform="scale(0.015625)"/>
       <path id="DejaVuSans-28" d="M 1984 4856 
Q 1566 4138 1362 3434 
Q 1159 2731 1159 2009 
Q 1159 1288 1364 580 
Q 1569 -128 1984 -844 
L 1484 -844 
Q 1016 -109 783 600 
Q 550 1309 550 2009 
Q 550 2706 781 3412 
Q 1013 4119 1484 4856 
L 1984 4856 
z
" transform="scale(0.015625)"/>
       <path id="DejaVuSans-6e" d="M 3513 2113 
L 3513 0 
L 2938 0 
L 2938 2094 
Q 2938 2591 2744 2837 
Q 2550 3084 2163 3084 
Q 1697 3084 1428 2787 
Q 1159 2491 1159 1978 
L 1159 0 
L 581 0 
L 581 3500 
L 1159 3500 
L 1159 2956 
Q 1366 3272 1645 3428 
Q 1925 3584 2291 3584 
Q 2894 3584 3203 3211 
Q 3513 2838 3513 2113 
z
" transform="scale(0.015625)"/>
       <path id="DejaVuSans-2f" d="M 1625 4666 
L 2156 4666 
L 531 -594 
L 0 -594 
L 1625 4666 
z
" transform="scale(0.015625)"/>
       <path id="DejaVuSans-64" d="M 2906 2969 
L 2906 4863 
L 3481 4863 
L 3481 0 
L 2906 0 
L 2906 525 
Q 2725 213 2448 61 
Q 2172 -91 1784 -91 
Q 1150 -91 751 415 
Q 353 922 353 1747 
Q 353 2572 751 3078 
Q 1150 3584 1784 3584 
Q 2172 3584 2448 3432 
Q 2725 3281 2906 2969 
z
M 947 1747 
Q 947 1113 1208 752 
Q 1469 391 1925 391 
Q 2381 391 2643 752 
Q 2906 1113 2906 1747 
Q 2906 2381 2643 2742 
Q 2381 3103 1925 3103 
Q 1469 3103 1208 2742 
Q 947 2381 947 1747 
z
" transform="scale(0.015625)"/>
       <path id="DejaVuSans-69" d="M 603 3500 
L 1178 3500 
L 1178 0 
L 603 0 
L 603 3500 
z
M 603 4863 
L 1178 4863 
L 1178 4134 
L 603 4134 
L 603 4863 
z
" transform="scale(0.015625)"/>
       <path id="DejaVuSans-29" d="M 513 4856 
L 1013 4856 
Q 1481 4119 1714 3412 
Q 1947 2706 1947 2009 
Q 1947 1309 1714 600 
Q 1481 -109 1013 -844 
L 513 -844 
Q 928 -128 1133 580 
Q 1338 1288 1338 2009 
Q 1338 2731 1133 3434 
Q 928 4138 513 4856 
z
" transform="scale(0.015625)"/>
      </defs>
      <use xlink:href="#DejaVuSans-54"/>
      <use xlink:href="#DejaVuSans-65" x="44.083984"/>
      <use xlink:href="#DejaVuSans-73" x="105.607422"/>
      <use xlink:href="#DejaVuSans-74" x="157.707031"/>
      <use xlink:href="#DejaVuSans-20" x="196.916016"/>
      <use xlink:href="#DejaVuSans-73" x="228.703125"/>
      <use xlink:href="#DejaVuSans-65" x="280.802734"/>
      <use xlink:href="#DejaVuSans-74" x="342.326172"/>
      <use xlink:href="#DejaVuSans-20" x="381.535156"/>
      <use xlink:href="#DejaVuSans-45" x="413.322266"/>
      <use xlink:href="#DejaVuSans-4c" x="476.505859"/>
      <use xlink:href="#DejaVuSans-42" x="532.21875"/>
      <use xlink:href="#DejaVuSans-4f" x="599.072266"/>
      <use xlink:href="#DejaVuSans-20" x="677.783203"/>
      <use xlink:href="#DejaVuSans-28" x="709.570312"/>
      <use xlink:href="#DejaVuSans-6e" x="748.583984"/>
      <use xlink:href="#DejaVuSans-61" x="811.962891"/>
      <use xlink:href="#DejaVuSans-74" x="873.242188"/>
      <use xlink:href="#DejaVuSans-73" x="912.451172"/>
      <use xlink:href="#DejaVuSans-2f" x="964.550781"/>
      <use xlink:href="#DejaVuSans-64" x="998.242188"/>
      <use xlink:href="#DejaVuSans-69" x="1061.71875"/>
      <use xlink:href="#DejaVuSans-6d" x="1089.501953"/>
      <use xlink:href="#DejaVuSans-29" x="1186.914062"/>
     </g>
    </g>
   </g>
   <g id="line2d_14">
    <path d="M 81.316934 85.053839 
L 84.109775 84.867611 
L 86.902615 84.681382 
L 89.695455 84.495154 
L 92.488295 84.308926 
L 95.281135 84.122697 
L 98.073975 83.936469 
L 100.866815 83.750241 
L 103.659655 83.564012 
L 106.452495 83.377784 
L 109.245335 83.191556 
L 112.038175 83.005327 
L 114.831015 82.819099 
L 117.623855 82.63287 
L 120.416695 82.446642 
L 123.209535 82.260414 
L 126.002375 82.074185 
L 128.795215 81.887957 
L 131.588055 81.701729 
L 134.380895 81.5155 
L 137.173735 81.329272 
L 139.966575 81.143044 
L 142.759416 80.956815 
L 145.552256 80.770587 
L 148.345096 80.584358 
L 151.137936 80.39813 
L 153.930776 80.211902 
L 156.723616 80.025673 
L 159.516456 79.839445 
L 162.309296 79.653217 
L 165.102136 79.466988 
L 167.894976 79.28076 
L 170.687816 79.094532 
L 173.480656 78.908303 
L 176.273496 78.722075 
L 179.066336 78.535847 
L 181.859176 78.349618 
L 184.652016 78.16339 
L 187.444856 77.977161 
L 190.237696 77.790933 
L 193.030536 77.604705 
L 195.823376 77.418476 
L 198.616216 77.232248 
L 201.409056 77.04602 
L 204.201897 76.859791 
L 206.994737 76.673563 
L 209.787577 76.487335 
L 212.580417 76.301106 
L 215.373257 76.114878 
L 218.166097 75.92865 
L 220.958937 75.742421 
L 223.751777 75.556193 
L 226.544617 75.369964 
L 229.337457 75.183736 
L 232.130297 74.997508 
L 234.923137 74.811279 
L 237.715977 74.625051 
L 240.508817 74.438823 
L 243.301657 74.252594 
L 246.094497 74.066366 
L 248.887337 73.880138 
L 251.680177 73.693909 
L 254.473017 73.507681 
L 257.265857 73.321452 
L 260.058697 73.135224 
L 262.851537 72.948996 
L 265.644378 72.762767 
L 268.437218 72.576539 
L 271.230058 72.390311 
L 274.022898 72.204082 
L 276.815738 72.017854 
L 279.608578 71.831626 
L 282.401418 71.645397 
L 285.194258 71.459169 
L 287.987098 71.272941 
L 290.779938 71.086712 
L 293.572778 70.900484 
L 296.365618 70.714255 
L 299.158458 70.528027 
L 301.951298 70.341799 
L 304.744138 70.15557 
L 307.536978 69.969342 
L 310.329818 69.783114 
L 313.122658 69.596885 
L 315.915498 69.410657 
L 318.708338 69.224429 
L 321.501178 69.0382 
L 324.294018 68.851972 
L 327.086859 68.665744 
L 329.879699 68.479515 
L 332.672539 68.293287 
L 335.465379 68.107058 
L 338.258219 67.92083 
L 341.051059 67.734602 
L 343.843899 67.548373 
L 346.636739 67.362145 
L 349.429579 67.175917 
L 352.222419 66.989688 
L 355.015259 66.80346 
L 357.808099 66.617232 
" clip-path="url(#p684cb2a1fd)" style="fill: none; stroke: #1f77b4; stroke-width: 2.25; stroke-linecap: square"/>
   </g>
   <g id="line2d_15">
    <path d="M 81.316934 57.85103 
L 84.109775 57.66001 
L 86.902615 57.468991 
L 89.695455 57.277971 
L 92.488295 57.086952 
L 95.281135 56.895932 
L 98.073975 56.704913 
L 100.866815 56.513893 
L 103.659655 56.322874 
L 106.452495 56.131854 
L 109.245335 55.940835 
L 112.038175 55.749815 
L 114.831015 55.558796 
L 117.623855 55.367776 
L 120.416695 55.176757 
L 123.209535 54.985737 
L 126.002375 54.794718 
L 128.795215 54.603698 
L 131.588055 54.412678 
L 134.380895 54.221659 
L 137.173735 54.030639 
L 139.966575 53.83962 
L 142.759416 53.6486 
L 145.552256 53.457581 
L 148.345096 53.266561 
L 151.137936 53.075542 
L 153.930776 52.884522 
L 156.723616 52.693503 
L 159.516456 52.502483 
L 162.309296 52.311464 
L 165.102136 52.120444 
L 167.894976 51.929425 
L 170.687816 51.738405 
L 173.480656 51.547386 
L 176.273496 51.356366 
L 179.066336 51.165347 
L 181.859176 50.974327 
L 184.652016 50.783307 
L 187.444856 50.592288 
L 190.237696 50.401268 
L 193.030536 50.210249 
L 195.823376 50.019229 
L 198.616216 49.82821 
L 201.409056 49.63719 
L 204.201897 49.446171 
L 206.994737 49.255151 
L 209.787577 49.064132 
L 212.580417 48.873112 
L 215.373257 48.682093 
L 218.166097 48.491073 
L 220.958937 48.300054 
L 223.751777 48.109034 
L 226.544617 47.918015 
L 229.337457 47.726995 
L 232.130297 47.535975 
L 234.923137 47.344956 
L 237.715977 47.153936 
L 240.508817 46.962917 
L 243.301657 46.771897 
L 246.094497 46.580878 
L 248.887337 46.389858 
L 251.680177 46.198839 
L 254.473017 46.007819 
L 257.265857 45.8168 
L 260.058697 45.62578 
L 262.851537 45.434761 
L 265.644378 45.243741 
L 268.437218 45.052722 
L 271.230058 44.861702 
L 274.022898 44.670683 
L 276.815738 44.479663 
L 279.608578 44.288643 
L 282.401418 44.097624 
L 285.194258 43.906604 
L 287.987098 43.715585 
L 290.779938 43.524565 
L 293.572778 43.333546 
L 296.365618 43.142526 
L 299.158458 42.951507 
L 301.951298 42.760487 
L 304.744138 42.569468 
L 307.536978 42.378448 
L 310.329818 42.187429 
L 313.122658 41.996409 
L 315.915498 41.80539 
L 318.708338 41.61437 
L 321.501178 41.423351 
L 324.294018 41.232331 
L 327.086859 41.041311 
L 329.879699 40.850292 
L 332.672539 40.659272 
L 335.465379 40.468253 
L 338.258219 40.277233 
L 341.051059 40.086214 
L 343.843899 39.895194 
L 346.636739 39.704175 
L 349.429579 39.513155 
L 352.222419 39.322136 
L 355.015259 39.131116 
L 357.808099 38.940097 
" clip-path="url(#p684cb2a1fd)" style="fill: none; stroke: #ff7f0e; stroke-width: 2.25; stroke-linecap: square"/>
   </g>
   <g id="patch_3">
    <path d="M 63.47 171.16 
L 63.47 10.8 
" style="fill: none; stroke: #000000; stroke-width: 0.8; stroke-linejoin: miter; stroke-linecap: square"/>
   </g>
   <g id="patch_4">
    <path d="M 63.47 171.16 
L 375.92 171.16 
" style="fill: none; stroke: #000000; stroke-width: 0.8; stroke-linejoin: miter; stroke-linecap: square"/>
   </g>
  </g>
  <g id="legend_1">
   <g id="text_16">
    <!-- Calibration -->
    <g transform="translate(323.310625 96.08125) scale(0.1 -0.1)">
     <defs>
      <path id="DejaVuSans-43" d="M 4122 4306 
L 4122 3641 
Q 3803 3938 3442 4084 
Q 3081 4231 2675 4231 
Q 1875 4231 1450 3742 
Q 1025 3253 1025 2328 
Q 1025 1406 1450 917 
Q 1875 428 2675 428 
Q 3081 428 3442 575 
Q 3803 722 4122 1019 
L 4122 359 
Q 3791 134 3420 21 
Q 3050 -91 2638 -91 
Q 1578 -91 968 557 
Q 359 1206 359 2328 
Q 359 3453 968 4101 
Q 1578 4750 2638 4750 
Q 3056 4750 3426 4639 
Q 3797 4528 4122 4306 
z
" transform="scale(0.015625)"/>
     </defs>
     <use xlink:href="#DejaVuSans-43"/>
     <use xlink:href="#DejaVuSans-61" x="69.824219"/>
     <use xlink:href="#DejaVuSans-6c" x="131.103516"/>
     <use xlink:href="#DejaVuSans-69" x="158.886719"/>
     <use xlink:href="#DejaVuSans-62" x="186.669922"/>
     <use xlink:href="#DejaVuSans-72" x="250.146484"/>
     <use xlink:href="#DejaVuSans-61" x="291.259766"/>
     <use xlink:href="#DejaVuSans-74" x="352.539062"/>
     <use xlink:href="#DejaVuSans-69" x="391.748047"/>
     <use xlink:href="#DejaVuSans-6f" x="419.53125"/>
     <use xlink:href="#DejaVuSans-6e" x="480.712891"/>
    </g>
   </g>
   <g id="PathCollection_3">
    <g>
     <use xlink:href="#m0a8f4bb2c6" x="333.961406" y="108.134375" style="fill: #1f77b4; fill-opacity: 0.8; stroke: #1f77b4; stroke-opacity: 0.8"/>
    </g>
   </g>
   <g id="text_17">
    <!-- False -->
    <g transform="translate(351.961406 110.759375) scale(0.1 -0.1)">
     <defs>
      <path id="DejaVuSans-46" d="M 628 4666 
L 3309 4666 
L 3309 4134 
L 1259 4134 
L 1259 2759 
L 3109 2759 
L 3109 2228 
L 1259 2228 
L 1259 0 
L 628 0 
L 628 4666 
z
" transform="scale(0.015625)"/>
     </defs>
     <use xlink:href="#DejaVuSans-46"/>
     <use xlink:href="#DejaVuSans-61" x="48.394531"/>
     <use xlink:href="#DejaVuSans-6c" x="109.673828"/>
     <use xlink:href="#DejaVuSans-73" x="137.457031"/>
     <use xlink:href="#DejaVuSans-65" x="189.556641"/>
    </g>
   </g>
   <g id="PathCollection_4">
    <g>
     <use xlink:href="#m9ffcbe5f3e" x="333.961406" y="122.8125" style="fill: #ff7f0e; fill-opacity: 0.8; stroke: #ff7f0e; stroke-opacity: 0.8"/>
    </g>
   </g>
   <g id="text_18">
    <!-- True -->
    <g transform="translate(351.961406 125.4375) scale(0.1 -0.1)">
     <use xlink:href="#DejaVuSans-54"/>
     <use xlink:href="#DejaVuSans-72" x="46.333984"/>
     <use xlink:href="#DejaVuSans-75" x="87.447266"/>
     <use xlink:href="#DejaVuSans-65" x="150.826172"/>
    </g>
   </g>
  </g>
 </g>
 <defs>
  <clipPath id="p684cb2a1fd">
   <rect x="63.47" y="10.8" width="312.45" height="160.36"/>
  </clipPath>
 </defs>
</svg>
